<?xml version="1.0" encoding="iso-8859-1"?>
<!-- Generator: Adobe Illustrator 19.0.0, SVG Export Plug-In . SVG Version: 6.00 Build 0)  -->
<svg version="1.1" id="Layer_1" xmlns="http://www.w3.org/2000/svg" xmlns:xlink="http://www.w3.org/1999/xlink" x="0px" y="0px"
	 viewBox="0 0 512 512" style="enable-background:new 0 0 512 512;" xml:space="preserve">
<g transform="translate(1 1)">
	<g>
		<g>
			<path d="M63,295.107l20.48,20.48c7.195,7.849,16.4,13.179,26.453,15.246v51.924l-30.72-6.583
				c-9.387-2.56-18.773,3.413-20.48,12.8L55.32,406.04c-0.853,4.267,0,8.533,2.56,12.8s6.827,6.827,11.093,7.68l83.627,17.92
				c0.853,0,2.56,0,3.413,0c3.413,0,6.827-0.853,9.387-1.707c4.267-2.56,6.827-6.827,7.68-11.093l3.413-17.067
				c0.853-4.267,0-9.387-2.56-12.8c-2.56-4.267-6.827-6.827-11.093-7.68l-35.84-7.68v-55.34c10.12-1.889,19.804-7.474,27.307-16.34
				l20.48-20.48c10.375-8.3,16.823-18.844,18.895-30.72h121.646c2.014,11.923,9.251,22.958,20.739,31.573l20.48,20.48
				c7.195,7.849,16.4,13.179,26.453,15.246V383h-34.133c-9.387,0-17.067,7.68-17.067,17.067v17.067
				c0,9.387,7.68,17.067,17.067,17.067H434.2c9.387,0,17.067-7.68,17.067-17.067v-17.067c0-9.387-7.68-17.067-17.067-17.067h-34.133
				v-51.927c10.12-1.889,19.804-7.474,27.307-16.34l20.48-20.48c12.8-10.24,19.627-23.893,19.627-39.253
				s-6.827-29.867-19.627-40.107l-20.48-20.48c-7.398-8.071-16.921-13.476-27.307-15.41V127H434.2
				c9.387,0,17.067-7.68,17.067-17.067V92.867c0-9.387-7.68-17.067-17.067-17.067h-85.333c-9.387,0-17.067,7.68-17.067,17.067
				v17.067c0,9.387,7.68,17.067,17.067,17.067H383v52.023c-10.12,1.951-19.079,7.346-26.453,15.39l-20.48,20.48
				c-11.267,8.616-17.881,19.809-20.282,31.573H193.698c-2.057-12.12-8.513-23.255-18.911-31.573l-20.48-20.48
				c-7.398-8.071-16.921-13.476-27.307-15.41v-61.024l34.133,7.314c0.853,0,2.56,0,3.413,0c3.413,0,6.827-0.853,10.24-2.56
				c4.267-2.56,6.827-6.827,7.68-11.093l3.413-17.067c0.853-4.267,0-9.387-2.56-12.8c-2.56-4.267-6.827-6.827-11.093-7.68
				L88.6,56.173c-4.267-0.853-9.387,0-12.8,2.56c-4.267,2.56-6.827,6.827-7.68,11.093l-3.413,17.067
				c-2.56,9.387,3.413,18.773,12.8,20.48l32.427,6.949v64.701c-10.12,1.951-19.079,7.346-26.453,15.39L63,214.893
				c-14.507,11.093-21.333,26.453-21.333,41.813C41.667,271.213,49.347,285.72,63,295.107z M156.013,427.373l-83.627-17.067
				L75.8,393.24l39.771,8.117c0.524,0.159,1.077,0.271,1.658,0.338l42.198,8.612L156.013,427.373z M434.2,417.133h-85.333v-17.067
				H434.2V417.133z M348.867,92.867H434.2v17.067h-85.333V92.867z M84.333,74.093l83.627,17.92l-3.413,17.067l-40.979-8.781
				c-1.376-0.935-3.106-1.459-5.101-1.459c-0.449,0-0.88,0.035-1.302,0.087L80.92,91.16L84.333,74.093z M347.16,227.693l0.853-0.853
				l21.333-21.333c5.973-6.827,14.507-10.24,23.04-10.24s17.067,3.413,23.893,10.24l21.333,21.333
				c8.533,7.68,13.653,17.92,13.653,28.16c0,9.387-5.12,19.627-13.653,26.453c-0.853,0.853-0.853,0.853-0.853,0.853l-21.333,21.333
				c-6.827,7.68-15.36,11.093-23.893,11.093c-8.533,0-16.213-4.267-23.04-11.093l-21.333-21.333l-0.853-0.853
				c-9.387-6.827-14.507-16.213-14.507-25.6C331.8,245.613,336.92,235.373,347.16,227.693z M74.093,227.693l0.853-0.853
				l21.333-21.333c5.973-6.827,14.507-10.24,23.04-10.24s17.067,3.413,23.893,10.24l21.333,21.333
				c8.533,7.68,13.653,17.92,13.653,28.16c0,9.387-5.12,19.627-13.653,26.453c-0.853,0.853-0.853,0.853-0.853,0.853L142.36,303.64
				c-6.827,7.68-15.36,11.093-23.893,11.093s-16.213-4.267-23.04-11.093l-21.333-21.333l-0.853-0.853
				c-9.387-6.827-14.507-16.213-14.507-25.6C58.733,245.613,63.853,236.227,74.093,227.693z"/>
			<path d="M502.467,24.6H7.533C2.413,24.6-1,28.013-1,33.133v443.733c0,5.12,3.413,8.533,8.533,8.533h494.933
				c5.12,0,8.533-3.413,8.533-8.533V33.133C511,28.013,507.587,24.6,502.467,24.6z M493.933,468.333H16.067V41.667h477.867V468.333z
				"/>
		</g>
	</g>
</g>
<g>
</g>
<g>
</g>
<g>
</g>
<g>
</g>
<g>
</g>
<g>
</g>
<g>
</g>
<g>
</g>
<g>
</g>
<g>
</g>
<g>
</g>
<g>
</g>
<g>
</g>
<g>
</g>
<g>
</g>
</svg>
